<svg width="86" height="24" viewBox="0 0 86 24" fill="none" xmlns="http://www.w3.org/2000/svg">
<path d="M2.63086 11H0.873047V2.46875H2.63086V11ZM9.55078 2.46875L11.7422 8.65625L13.9219 2.46875H16.2305V11H14.4668V8.66797L14.6426 4.64258L12.3398 11H11.1328L8.83594 4.64844L9.01172 8.66797V11H7.25391V2.46875H9.55078ZM22.5117 7.99414V11H20.7539V2.46875H24.082C24.7227 2.46875 25.2852 2.58594 25.7695 2.82031C26.2578 3.05469 26.6328 3.38867 26.8945 3.82227C27.1562 4.25195 27.2871 4.74219 27.2871 5.29297C27.2871 6.12891 27 6.78906 26.4258 7.27344C25.8555 7.75391 25.0645 7.99414 24.0527 7.99414H22.5117ZM22.5117 6.57031H24.082C24.5469 6.57031 24.9004 6.46094 25.1426 6.24219C25.3887 6.02344 25.5117 5.71094 25.5117 5.30469C25.5117 4.88672 25.3887 4.54883 25.1426 4.29102C24.8965 4.0332 24.5566 3.90039 24.123 3.89258H22.5117V6.57031ZM36.6211 7.30273H33.2461V9.58789H37.207V11H31.4883V2.46875H37.1953V3.89258H33.2461V5.92578H36.6211V7.30273ZM44.3848 7.87695H42.9844V11H41.2266V2.46875H44.3965C45.4043 2.46875 46.1816 2.69336 46.7285 3.14258C47.2754 3.5918 47.5488 4.22656 47.5488 5.04688C47.5488 5.62891 47.4219 6.11523 47.168 6.50586C46.918 6.89258 46.5371 7.20117 46.0254 7.43164L47.8711 10.918V11H45.9844L44.3848 7.87695ZM42.9844 6.45312H44.4023C44.8438 6.45312 45.1855 6.3418 45.4277 6.11914C45.6699 5.89258 45.791 5.58203 45.791 5.1875C45.791 4.78516 45.6758 4.46875 45.4453 4.23828C45.2188 4.00781 44.8691 3.89258 44.3965 3.89258H42.9844V6.45312ZM53.748 11H51.9902V2.46875H53.748V11ZM63.1875 9.24219H60.1055L59.5195 11H57.6504L60.8262 2.46875H62.4551L65.6484 11H63.7793L63.1875 9.24219ZM60.5801 7.81836H62.7129L61.6406 4.625L60.5801 7.81836ZM71.1914 9.58789H74.9238V11H69.4336V2.46875H71.1914V9.58789Z" fill="black"/>
<path d="M19.7119 19.1445H16.7334L16.0645 21H15.0977L17.8125 13.8906H18.6328L21.3525 21H20.3906L19.7119 19.1445ZM17.0166 18.373H19.4336L18.2227 15.0479L17.0166 18.373ZM27.4805 18.7441C27.3926 19.4961 27.1143 20.0771 26.6455 20.4873C26.18 20.8942 25.5599 21.0977 24.7852 21.0977C23.9453 21.0977 23.2715 20.7965 22.7637 20.1943C22.2591 19.5921 22.0068 18.7865 22.0068 17.7773V17.0938C22.0068 16.4329 22.124 15.8519 22.3584 15.3506C22.596 14.8493 22.9313 14.4652 23.3643 14.1982C23.7972 13.9281 24.2985 13.793 24.8682 13.793C25.6234 13.793 26.2288 14.0046 26.6846 14.4277C27.1403 14.8477 27.4056 15.4303 27.4805 16.1758H26.5381C26.4567 15.6094 26.2793 15.1992 26.0059 14.9453C25.7357 14.6914 25.3564 14.5645 24.8682 14.5645C24.2692 14.5645 23.7988 14.7858 23.457 15.2285C23.1185 15.6712 22.9492 16.3011 22.9492 17.1182V17.8066C22.9492 18.5781 23.1104 19.1917 23.4326 19.6475C23.7549 20.1032 24.2057 20.3311 24.7852 20.3311C25.306 20.3311 25.7048 20.2139 25.9814 19.9795C26.2614 19.7419 26.4469 19.3301 26.5381 18.7441H27.4805ZM32.6904 19.1445H29.7119L29.043 21H28.0762L30.791 13.8906H31.6113L34.3311 21H33.3691L32.6904 19.1445ZM29.9951 18.373H32.4121L31.2012 15.0479L29.9951 18.373ZM35.2881 21V13.8906H37.2949C37.9134 13.8906 38.4603 14.0273 38.9355 14.3008C39.4108 14.5742 39.777 14.9632 40.0342 15.4678C40.2946 15.9723 40.4264 16.5518 40.4297 17.2061V17.6602C40.4297 18.3307 40.2995 18.9183 40.0391 19.4229C39.7819 19.9274 39.4124 20.3148 38.9307 20.585C38.4521 20.8551 37.8939 20.9935 37.2559 21H35.2881ZM36.2256 14.6621V20.2334H37.2119C37.9346 20.2334 38.4961 20.0088 38.8965 19.5596C39.3001 19.1104 39.502 18.4707 39.502 17.6406V17.2256C39.502 16.4183 39.3115 15.7917 38.9307 15.3457C38.5531 14.8965 38.016 14.6686 37.3193 14.6621H36.2256ZM45.8691 17.7139H42.7881V20.2334H46.3672V21H41.8506V13.8906H46.3184V14.6621H42.7881V16.9473H45.8691V17.7139ZM48.7451 13.8906L51.0693 19.6914L53.3936 13.8906H54.6094V21H53.6719V18.2314L53.7598 15.2432L51.4258 21H50.708L48.3789 15.2578L48.4717 18.2314V21H47.5342V13.8906H48.7451ZM58.2959 17.46L60.1514 13.8906H61.2158L58.7646 18.3486V21H57.8271V18.3486L55.376 13.8906H56.4502L58.2959 17.46Z" fill="black"/>
</svg>
